HIERARCHY
ROOT Root
{
  OFFSET 0.0 0.0 0.0
  CHANNELS 6 Xposition Yposition Zposition Zrotation Yrotation Xrotation
  JOINT Hips
  {
    OFFSET 0.0 100.0 0.0
    CHANNELS 6 Xposition Yposition Zposition Zrotation Yrotation Xrotation
    JOINT Spine1
    {
      OFFSET 5.003913 -0.037094 -0.013727
      CHANNELS 3 Zrotation Yrotation Xrotation
      JOINT Spine2
      {
        OFFSET 7.125363 -1e-06 0.0
        CHANNELS 3 Zrotation Yrotation Xrotation
        JOINT Chest
        {
          OFFSET 7.594027 1e-06 0.0
          CHANNELS 3 Zrotation Yrotation Xrotation
          JOINT Neck1
          {
            OFFSET 26.313086 -0.460272 -0.181672
            CHANNELS 3 Zrotation Yrotation Xrotation
            JOINT Neck2
            {
              OFFSET 8.045911 0.0 0.0
              CHANNELS 3 Zrotation Yrotation Xrotation
              JOINT Head
              {
                OFFSET 6.432774 0.0 0.0
                CHANNELS 3 Zrotation Yrotation Xrotation
                JOINT HeadEnd
                {
                  OFFSET 16.169773 0.06451 0.00362
                  CHANNELS 3 Zrotation Yrotation Xrotation
                }
                JOINT Jaw
                {
                  OFFSET 0.108741 3.12938 0.002639
                  CHANNELS 3 Zrotation Yrotation Xrotation
                }
                JOINT LeftEye
                {
                  OFFSET 4.45173 8.166359 3.206392
                  CHANNELS 3 Zrotation Yrotation Xrotation
                }
                JOINT RightEye
                {
                  OFFSET 4.436895 8.135758 -3.222429
                  CHANNELS 3 Zrotation Yrotation Xrotation
                }
              }
            }
          }
          JOINT LeftShoulder
          {
            OFFSET 23.218927 5.195579 1.621656
            CHANNELS 3 Zrotation Yrotation Xrotation
            JOINT LeftArm
            {
              OFFSET 15.902118 2e-06 -2e-06
              CHANNELS 3 Zrotation Yrotation Xrotation
              JOINT LeftForeArm
              {
                OFFSET 28.739307 0.0 -1e-06
                CHANNELS 3 Zrotation Yrotation Xrotation
                JOINT LeftHand
                {
                  OFFSET 27.093981 -4e-06 0.0
                  CHANNELS 3 Zrotation Yrotation Xrotation
                  JOINT LeftHandThumb1
                  {
                    OFFSET 2.276781 3.380274 0.83384
                    CHANNELS 3 Zrotation Yrotation Xrotation
                    JOINT LeftHandThumb2
                    {
                      OFFSET 4.705309 -1e-06 -1e-06
                      CHANNELS 3 Zrotation Yrotation Xrotation
                      JOINT LeftHandThumb3
                      {
                        OFFSET 2.798515 0.0 3e-06
                        CHANNELS 3 Zrotation Yrotation Xrotation
                        JOINT LeftHandThumbEnd
                        {
                          OFFSET 3.180793 4e-06 -4e-06
                          CHANNELS 3 Zrotation Yrotation Xrotation
                        }
                      }
                    }
                  }
                  JOINT LeftHandIndex1
                  {
                    OFFSET 3.247786 2.352677 0.137192
                    CHANNELS 3 Zrotation Yrotation Xrotation
                    JOINT LeftHandIndex2
                    {
                      OFFSET 6.367095 1e-06 0.0
                      CHANNELS 3 Zrotation Yrotation Xrotation
                      JOINT LeftHandIndex3
                      {
                        OFFSET 3.662364 0.0 0.0
                        CHANNELS 3 Zrotation Yrotation Xrotation
                        JOINT LeftHandIndex4
                        {
                          OFFSET 2.329242 4e-06 -4e-06
                          CHANNELS 3 Zrotation Yrotation Xrotation
                          JOINT LeftHandIndexEnd
                          {
                            OFFSET 2.767823 1e-06 0.0
                            CHANNELS 3 Zrotation Yrotation Xrotation
                          }
                        }
                      }
                    }
                  }
                  JOINT LeftHandMiddle1
                  {
                    OFFSET 3.163612 0.945023 -0.406112
                    CHANNELS 3 Zrotation Yrotation Xrotation
                    JOINT LeftHandMiddle2
                    {
                      OFFSET 6.276789 3e-06 0.0
                      CHANNELS 3 Zrotation Yrotation Xrotation
                      JOINT LeftHandMiddle3
                      {
                        OFFSET 4.35652 -1e-06 4e-06
                        CHANNELS 3 Zrotation Yrotation Xrotation
                        JOINT LeftHandMiddle4
                        {
                          OFFSET 2.996877 0.0 8e-06
                          CHANNELS 3 Zrotation Yrotation Xrotation
                          JOINT LeftHandMiddleEnd
                          {
                            OFFSET 2.323256 3e-06 -4e-06
                            CHANNELS 3 Zrotation Yrotation Xrotation
                          }
                        }
                      }
                    }
                  }
                  JOINT LeftHandRing1
                  {
                    OFFSET 2.882606 -0.309162 0.107445
                    CHANNELS 3 Zrotation Yrotation Xrotation
                    JOINT LeftHandRing2
                    {
                      OFFSET 6.033198 0.0 4e-06
                      CHANNELS 3 Zrotation Yrotation Xrotation
                      JOINT LeftHandRing3
                      {
                        OFFSET 4.350578 3e-06 0.0
                        CHANNELS 3 Zrotation Yrotation Xrotation
                        JOINT LeftHandRing4
                        {
                          OFFSET 2.651321 2e-06 -7e-06
                          CHANNELS 3 Zrotation Yrotation Xrotation
                          JOINT LeftHandRingEnd
                          {
                            OFFSET 1.937663 1e-06 -4e-06
                            CHANNELS 3 Zrotation Yrotation Xrotation
                          }
                        }
                      }
                    }
                  }
                  JOINT LeftHandPinky1
                  {
                    OFFSET 2.865315 -1.525436 0.575687
                    CHANNELS 3 Zrotation Yrotation Xrotation
                    JOINT LeftHandPinky2
                    {
                      OFFSET 5.54936 1e-06 -8e-06
                      CHANNELS 3 Zrotation Yrotation Xrotation
                      JOINT LeftHandPinky3
                      {
                        OFFSET 3.070974 0.0 -4e-06
                        CHANNELS 3 Zrotation Yrotation Xrotation
                        JOINT LeftHandPinky4
                        {
                          OFFSET 1.549672 1e-06 0.0
                          CHANNELS 3 Zrotation Yrotation Xrotation
                          JOINT LeftHandPinkyEnd
                          {
                            OFFSET 1.952123 0.0 0.0
                            CHANNELS 3 Zrotation Yrotation Xrotation
                          }
                        }
                      }
                    }
                  }
                }
              }
            }
          }
          JOINT RightShoulder
          {
            OFFSET 23.161716 5.296122 -1.380114
            CHANNELS 3 Zrotation Yrotation Xrotation
            JOINT RightArm
            {
              OFFSET -16.027195 -2e-06 1.1e-05
              CHANNELS 3 Zrotation Yrotation Xrotation
              JOINT RightForeArm
              {
                OFFSET -28.736639 4e-06 2e-06
                CHANNELS 3 Zrotation Yrotation Xrotation
                JOINT RightHand
                {
                  OFFSET -27.133619 6e-06 0.0
                  CHANNELS 3 Zrotation Yrotation Xrotation
                  JOINT RightHandThumb1
                  {
                    OFFSET -2.274328 -3.351035 -0.83067
                    CHANNELS 3 Zrotation Yrotation Xrotation
                    JOINT RightHandThumb2
                    {
                      OFFSET -4.703594 -3e-06 2e-06
                      CHANNELS 3 Zrotation Yrotation Xrotation
                      JOINT RightHandThumb3
                      {
                        OFFSET -2.794935 -4e-06 -3e-06
                        CHANNELS 3 Zrotation Yrotation Xrotation
                        JOINT RightHandThumbEnd
                        {
                          OFFSET -3.183852 4e-06 1e-06
                          CHANNELS 3 Zrotation Yrotation Xrotation
                        }
                      }
                    }
                  }
                  JOINT RightHandIndex1
                  {
                    OFFSET -3.253496 -2.33755 -0.127667
                    CHANNELS 3 Zrotation Yrotation Xrotation
                    JOINT RightHandIndex2
                    {
                      OFFSET -6.344434 0.0 0.0
                      CHANNELS 3 Zrotation Yrotation Xrotation
                      JOINT RightHandIndex3
                      {
                        OFFSET -3.654871 0.0 -8e-06
                        CHANNELS 3 Zrotation Yrotation Xrotation
                        JOINT RightHandIndex4
                        {
                          OFFSET -2.327586 -1e-06 0.0
                          CHANNELS 3 Zrotation Yrotation Xrotation
                          JOINT RightHandIndexEnd
                          {
                            OFFSET -2.770001 3e-06 8e-06
                            CHANNELS 3 Zrotation Yrotation Xrotation
                          }
                        }
                      }
                    }
                  }
                  JOINT RightHandMiddle1
                  {
                    OFFSET -3.168223 -0.944764 0.411762
                    CHANNELS 3 Zrotation Yrotation Xrotation
                    JOINT RightHandMiddle2
                    {
                      OFFSET -6.266691 -1e-06 -4e-06
                      CHANNELS 3 Zrotation Yrotation Xrotation
                      JOINT RightHandMiddle3
                      {
                        OFFSET -4.348901 0.0 0.0
                        CHANNELS 3 Zrotation Yrotation Xrotation
                        JOINT RightHandMiddle4
                        {
                          OFFSET -3.00024 2e-06 -4e-06
                          CHANNELS 3 Zrotation Yrotation Xrotation
                          JOINT RightHandMiddleEnd
                          {
                            OFFSET -2.321477 -4e-06 -4e-06
                            CHANNELS 3 Zrotation Yrotation Xrotation
                          }
                        }
                      }
                    }
                  }
                  JOINT RightHandRing1
                  {
                    OFFSET -2.885654 0.293261 -0.119232
                    CHANNELS 3 Zrotation Yrotation Xrotation
                    JOINT RightHandRing2
                    {
                      OFFSET -6.032835 -1e-06 -4e-06
                      CHANNELS 3 Zrotation Yrotation Xrotation
                      JOINT RightHandRing3
                      {
                        OFFSET -4.33881 0.0 -4e-06
                        CHANNELS 3 Zrotation Yrotation Xrotation
                        JOINT RightHandRing4
                        {
                          OFFSET -2.654903 -4e-06 -4e-06
                          CHANNELS 3 Zrotation Yrotation Xrotation
                          JOINT RightHandRingEnd
                          {
                            OFFSET -1.935122 0.0 4e-06
                            CHANNELS 3 Zrotation Yrotation Xrotation
                          }
                        }
                      }
                    }
                  }
                  JOINT RightHandPinky1
                  {
                    OFFSET -2.866241 1.503904 -0.60527
                    CHANNELS 3 Zrotation Yrotation Xrotation
                    JOINT RightHandPinky2
                    {
                      OFFSET -5.553177 -2e-06 0.0
                      CHANNELS 3 Zrotation Yrotation Xrotation
                      JOINT RightHandPinky3
                      {
                        OFFSET -3.062664 -1e-06 -4e-06
                        CHANNELS 3 Zrotation Yrotation Xrotation
                        JOINT RightHandPinky4
                        {
                          OFFSET -1.546529 2e-06 4e-06
                          CHANNELS 3 Zrotation Yrotation Xrotation
                          JOINT RightHandPinkyEnd
                          {
                            OFFSET -1.952341 0.0 -4e-06
                            CHANNELS 3 Zrotation Yrotation Xrotation
                          }
                        }
                      }
                    }
                  }
                }
              }
            }
          }
        }
      }
    }
    JOINT LeftLeg
    {
      OFFSET -8.443107 2.567604 10.043214
      CHANNELS 3 Zrotation Yrotation Xrotation
      JOINT LeftShin
      {
        OFFSET 43.229198 1e-06 -1e-06
        CHANNELS 3 Zrotation Yrotation Xrotation
        JOINT LeftFoot
        {
          OFFSET 42.298611 1e-06 1e-06
          CHANNELS 3 Zrotation Yrotation Xrotation
          JOINT LeftToeBase
          {
            OFFSET 14.165858 1e-06 0.0
            CHANNELS 3 Zrotation Yrotation Xrotation
            JOINT LeftToeEnd
            {
              OFFSET 6.7141 -0.234461 0.0
              CHANNELS 3 Zrotation Yrotation Xrotation
            }
          }
        }
      }
    }
    JOINT RightLeg
    {
      OFFSET -8.303923 2.592729 -10.047278
      CHANNELS 3 Zrotation Yrotation Xrotation
      JOINT RightShin
      {
        OFFSET -43.369682 0.0 1e-06
        CHANNELS 3 Zrotation Yrotation Xrotation
        JOINT RightFoot
        {
          OFFSET -42.260784 4e-06 2e-06
          CHANNELS 3 Zrotation Yrotation Xrotation
          JOINT RightToeBase
          {
            OFFSET -14.222245 -2e-06 -1e-06
            CHANNELS 3 Zrotation Yrotation Xrotation
            JOINT RightToeEnd
            {
              OFFSET -6.660062 0.232574 -2e-06
              CHANNELS 3 Zrotation Yrotation Xrotation
            }
          }
        }
      }
    }
  }
}
MOTION
Frames: 5
Frame Time: 0.03333333333333333
0.0 0.0 0.0 0.0 -0.0 0.0 2.191497 99.343697 -4.380913 89.736237 2.3694 89.939163 -2.109184 1.014456 -0.316136 -12.056573 -0.306293 -0.305385 19.111378 0.42639 -2.772211 21.128456 -2.102309 2.639621 -2.545524 -0.771518 -2.064226 -32.52824 0.625735 -4.598207 6e-06 -0.0 -0.0 0.006564 0.026602 0.079554 0.010182 0.032113 0.077053 -0.029164 0.021561 0.086058 -113.797974 -74.842499 135.304947 58.030956 -53.079819 6.832147 22.69536 0.166669 0.056251 -1.437748 3.613062 0.547317 17.636631 -26.322729 52.411182 -19.46666 -14.395597 29.410389 0.0 -8.774821 -2e-06 15.688834 -18.107903 6.311028 -0.609776 -1.795654 -3.889325 -4.80709 -11.046811 -2.93785 5e-06 -20.976019 -3e-06 -5.019969 -25.03356 -4.031879 6e-06 -0.0 1e-06 -10.634535 -5.68697 -3.565587 10.573271 -17.922951 -3.113898 2e-06 -13.821209 -2e-06 -0.501779 -31.181505 -4.027016 -11.808567 -59.994778 7.503713 -13.982714 -7.150198 -2.875039 13.772728 -8.401491 -3.218239 0.347735 -34.211555 0.771651 -0.963033 -17.73337 2.621021 1e-06 2e-06 1e-06 -17.346422 -20.095221 -4.201779 21.757561 -1.638374 3.866429 1e-06 -6.338824 0.0 -1.697591 -22.591747 -6.194005 -1e-06 -3e-06 -3e-06 55.045525 -77.592392 146.517746 50.898766 -59.670563 -12.650918 26.944004 -0.049242 0.178629 -0.375366 7.602895 5.513581 22.182108 -20.375893 49.933319 -16.701817 -16.74353 28.476528 -3e-06 -12.6906 0.0 16.255926 -17.821873 2.594932 -0.105919 -1.513857 -4.275881 -5.039039 -5.612871 -2.953555 5e-06 -11.020524 -1e-06 -6.111297 -15.89533 -3.84047 -0.0 1e-06 -1e-06 -10.28337 -5.680288 -4.341836 11.028296 -11.302406 -2.372633 -1.384268 -14.23858 -6.320121 -0.625436 -26.924191 -3.827601 -4.27436 -49.81105 -3.782455 -13.708523 -7.363475 -3.720938 18.141148 -14.05274 -3.242674 7e-06 -18.787268 -3e-06 -0.429712 -8.456043 2.555502 1e-06 -1e-06 1e-06 -15.923532 -20.094482 -5.473588 30.41921 -7.190827 1.735926 0.0 -8.162927 -1e-06 -1.861902 -22.861467 -6.167942 3e-06 -7e-06 -0.0 175.682129 -5.070319 0.720326 19.275652 -0.045556 0.07723 -81.973671 3.446362 -5.181654 -6.124276 1.552222 2.128038 -1.0 -0.0 0.0 -4.545665 -2.495386 -2.58236 20.271595 -0.06823 0.035079 -82.09626 -3.33422 -6.579504 -6.196106 0.789088 1.647867 -1.000002 0.0 0.0 
0.0 0.0 0.0 0.0 -0.0 0.0 2.212552 99.399269 -4.427717 89.681549 2.332286 89.849976 -2.089056 1.031205 -0.363956 -12.043579 -0.276964 -0.282243 19.071905 0.41318 -2.781406 21.145239 -2.154054 2.610301 -2.52178 -0.726762 -2.014357 -32.446583 0.534689 -4.509589 6e-06 0.0 -0.0 -0.001415 0.030632 0.118199 0.025371 0.039011 0.118132 -0.019966 0.02293 0.121448 -113.501442 -74.920937 135.108627 58.298214 -53.106209 6.43678 22.663624 0.122097 0.028122 -1.292401 3.613263 0.877708 17.636627 -26.322733 52.411201 -19.466663 -14.395598 29.410395 -0.0 -8.774822 -1e-06 15.693425 -18.103519 6.302931 -0.609777 -1.795652 -3.88933 -4.80709 -11.046811 -2.937848 4e-06 -20.976015 -2e-06 -5.019971 -25.03356 -4.031879 7e-06 -0.0 0.0 -10.634533 -5.686968 -3.565587 10.573274 -17.922947 -3.113899 3e-06 -13.821208 -2e-06 -0.501777 -31.181505 -4.027015 -11.77625 -60.025566 7.546714 -13.982714 -7.150199 -2.87504 13.772729 -8.401491 -3.218242 0.347733 -34.211555 0.771654 -0.96303 -17.73337 2.621022 -1e-06 1e-06 2e-06 -17.34642 -20.095217 -4.201782 21.757557 -1.638374 3.866428 -0.0 -6.338823 -0.0 -1.697591 -22.591747 -6.194005 0.0 -2e-06 -3e-06 55.045959 -77.532051 146.6745 51.064148 -59.614334 -12.900509 26.962944 -0.089486 0.150841 -0.300419 7.556185 5.344311 22.182117 -20.375898 49.933327 -16.701813 -16.743528 28.476532 -2e-06 -12.690603 0.0 16.261038 -17.793844 2.58616 -0.105918 -1.513856 -4.275882 -5.039043 -5.612873 -2.953556 4e-06 -11.020527 -2e-06 -6.111298 -15.895336 -3.840472 0.0 -1e-06 1e-06 -10.283373 -5.68029 -4.341837 11.028294 -11.302406 -2.372632 -1.384271 -14.238583 -6.320123 -0.625443 -26.924191 -3.8276 -4.289257 -49.869339 -3.754481 -13.708527 -7.363479 -3.72094 18.141148 -14.052739 -3.242674 6e-06 -18.787271 -1e-06 -0.42971 -8.456046 2.555504 -1e-06 -0.0 0.0 -15.923539 -20.094486 -5.473582 30.419218 -7.190827 1.735928 1e-06 -8.162929 -2e-06 -1.861902 -22.861479 -6.167943 1e-06 -2e-06 -1e-06 175.79483 -5.093108 0.873856 18.936789 -0.026071 0.108598 -81.783119 3.224904 -5.252142 -6.105335 1.558427 2.130903 -0.999998 -0.0 0.0 -4.409955 -2.415164 -2.424916 19.815372 -0.066225 0.049495 -81.809822 -3.499979 -6.593039 -6.228437 0.768519 1.648764 -1.000002 0.0 -0.0 
0.0 0.0 0.0 0.0 -0.0 0.0 2.242843 99.424156 -4.581719 89.639481 2.313778 89.733337 -2.07649 1.050496 -0.397993 -12.050756 -0.262939 -0.282022 19.116619 0.39698 -2.768756 21.146809 -2.241619 2.604405 -2.534985 -0.688374 -1.991376 -32.327705 0.462591 -4.46859 6e-06 -0.0 -0.0 -0.004853 0.032814 0.136483 0.021842 0.041489 0.138865 -0.024898 0.024675 0.136623 -113.275635 -74.975121 134.920883 58.431252 -53.114243 6.290251 22.737156 0.081887 0.004044 -1.194905 3.565501 0.955666 17.636639 -26.322741 52.411209 -19.466665 -14.395602 29.410398 -0.0 -8.774822 -2e-06 15.706225 -18.133612 6.306304 -0.609776 -1.795653 -3.889327 -4.807089 -11.046811 -2.93785 6e-06 -20.976019 -2e-06 -5.019972 -25.033562 -4.031878 6e-06 -0.0 0.0 -10.634537 -5.686972 -3.565589 10.573275 -17.922951 -3.113899 4e-06 -13.82121 -2e-06 -0.501779 -31.181505 -4.027013 -11.820566 -59.999168 7.567108 -13.982716 -7.150198 -2.875042 13.772731 -8.401493 -3.21824 0.347733 -34.211555 0.771654 -0.963029 -17.733374 2.621022 -1e-06 1e-06 0.0 -17.346422 -20.095221 -4.20178 21.757565 -1.638374 3.866425 0.0 -6.338824 -0.0 -1.697589 -22.591749 -6.194007 -1e-06 -3e-06 -3e-06 54.944164 -77.502541 146.869675 51.144592 -59.566921 -13.002078 27.023741 -0.110976 0.128776 -0.242537 7.608365 5.206925 22.182121 -20.375898 49.933323 -16.701817 -16.74353 28.476532 -4e-06 -12.690602 1e-06 16.269159 -17.761917 2.592274 -0.105919 -1.513855 -4.275884 -5.039041 -5.612872 -2.953557 6e-06 -11.020527 -1e-06 -6.111297 -15.895334 -3.840471 0.0 -0.0 0.0 -10.28337 -5.680288 -4.341842 11.028296 -11.302407 -2.372633 -1.384268 -14.238583 -6.32012 -0.625441 -26.924191 -3.827598 -4.302916 -49.878319 -3.746319 -13.708525 -7.363476 -3.720942 18.141151 -14.05274 -3.242675 7e-06 -18.787271 0.0 -0.429712 -8.456043 2.555503 0.0 -1e-06 0.0 -15.923536 -20.094484 -5.473585 30.419222 -7.19083 1.735927 1e-06 -8.162928 -2e-06 -1.861902 -22.861473 -6.167944 0.0 -3e-06 1e-06 175.730804 -5.095806 1.001522 18.862106 -0.016637 0.112251 -81.657661 3.021002 -5.290365 -6.065039 1.55616 2.133536 -1.0 0.0 0.0 -4.469596 -2.365878 -2.252872 19.643 -0.058458 0.047788 -81.592377 -3.652966 -6.632988 -6.205365 0.766172 1.650526 -1.000002 -0.0 -0.0 
0.0 0.0 0.0 0.0 -0.0 0.0 2.236408 99.450279 -4.782555 89.58873 2.289037 89.601715 -2.053707 1.07251 -0.417694 -12.052574 -0.248801 -0.296172 19.179317 0.382291 -2.729907 21.117165 -2.351312 2.592691 -2.555641 -0.674395 -1.942013 -32.281773 0.433817 -4.464572 6e-06 -0.0 -0.0 -0.005633 0.032792 0.1398 0.009262 0.041716 0.142844 -0.036646 0.024142 0.138679 -113.128525 -75.025604 134.789459 58.502922 -53.095383 6.372673 22.874197 0.078543 -0.000561 -1.125319 3.517352 0.97082 17.636625 -26.322731 52.41119 -19.466658 -14.395597 29.410389 1e-06 -8.774821 -2e-06 15.709459 -18.137819 6.298266 -0.609777 -1.795654 -3.889326 -4.807091 -11.046811 -2.93785 3e-06 -20.976015 -3e-06 -5.019974 -25.03356 -4.03188 6e-06 0.0 -0.0 -10.634534 -5.686972 -3.565588 10.573271 -17.922955 -3.113897 3e-06 -13.821211 -3e-06 -0.501782 -31.181505 -4.027013 -11.833454 -59.955406 7.541342 -13.982714 -7.150199 -2.875043 13.772729 -8.401491 -3.21824 0.347731 -34.211555 0.771654 -0.963031 -17.73337 2.621019 0.0 2e-06 2e-06 -17.34642 -20.095221 -4.201779 21.757557 -1.638374 3.866427 1e-06 -6.338825 2e-06 -1.697589 -22.591747 -6.194007 -0.0 -3e-06 -1e-06 54.832645 -77.505966 147.015564 51.19548 -59.52676 -12.921414 27.105204 -0.092573 0.124012 -0.213244 7.619256 5.047645 22.182116 -20.375889 49.933308 -16.701813 -16.74353 28.47653 -2e-06 -12.690603 -2e-06 16.269266 -17.731911 2.603965 -0.105918 -1.513856 -4.275879 -5.039042 -5.612873 -2.953557 4e-06 -11.020525 -2e-06 -6.111297 -15.895332 -3.840473 -0.0 1e-06 1e-06 -10.283371 -5.680289 -4.341839 11.028293 -11.302404 -2.372631 -1.384268 -14.238581 -6.320122 -0.625439 -26.924187 -3.8276 -4.32496 -49.847786 -3.729366 -13.708526 -7.363477 -3.720937 18.141148 -14.052739 -3.242674 7e-06 -18.78727 -3e-06 -0.429711 -8.456041 2.555501 0.0 -1e-06 0.0 -15.923536 -20.094482 -5.473585 30.419214 -7.190825 1.735928 1e-06 -8.162922 0.0 -1.861904 -22.861465 -6.16794 0.0 -2e-06 -2e-06 175.693771 -5.116581 1.054707 18.779446 -0.013391 0.107438 -81.54937 2.853835 -5.343015 -6.046173 1.546799 2.130996 -0.999999 -0.0 0.0 -4.573489 -2.283701 -2.094368 19.478815 -0.052581 0.037321 -81.348892 -3.775365 -6.653142 -6.179566 0.764674 1.651092 -1.000002 0.0 -0.0 
0.0 0.0 0.0 0.0 -0.0 0.0 2.211056 99.479317 -4.984066 89.520386 2.232502 89.48175 -2.035618 1.105951 -0.420983 -12.051473 -0.232617 -0.313271 19.248415 0.36729 -2.698965 21.007387 -2.463453 2.564011 -2.563269 -0.656667 -1.864473 -32.337242 0.430831 -4.461379 6e-06 0.0 -0.0 -0.001856 0.033616 0.143048 0.005441 0.043334 0.146051 -0.041012 0.024055 0.141508 -112.999611 -75.073853 134.675522 58.60788 -53.035145 6.562091 23.010277 0.094736 0.005406 -1.078585 3.492216 1.012712 17.636623 -26.322723 52.411182 -19.46666 -14.395594 29.410389 -0.0 -8.77482 -2e-06 15.684817 -18.120531 6.308302 -0.609777 -1.795654 -3.889327 -4.807088 -11.046809 -2.937849 5e-06 -20.976015 -3e-06 -5.019971 -25.033556 -4.031878 7e-06 -0.0 -1e-06 -10.634533 -5.686971 -3.565587 10.573271 -17.922951 -3.113899 2e-06 -13.821211 -2e-06 -0.501783 -31.181505 -4.027014 -11.8325 -59.900738 7.533542 -13.982711 -7.150198 -2.875042 13.772726 -8.40149 -3.218244 0.347732 -34.211544 0.771653 -0.963029 -17.73337 2.621018 -1e-06 1e-06 2e-06 -17.346418 -20.095217 -4.20178 21.757557 -1.638373 3.866427 0.0 -6.338823 0.0 -1.697591 -22.591743 -6.194005 -1e-06 -5e-06 -1e-06 54.74992 -77.524559 147.100784 51.281647 -59.450165 -12.741098 27.150942 -0.064759 0.12425 -0.191814 7.595299 4.858299 22.182114 -20.375895 49.933319 -16.701805 -16.743526 28.476528 -2e-06 -12.6906 -1e-06 16.258329 -17.728333 2.620971 -0.105919 -1.513855 -4.275882 -5.039038 -5.61287 -2.953557 4e-06 -11.02052 -2e-06 -6.111297 -15.89533 -3.84047 0.0 -0.0 1e-06 -10.28337 -5.680288 -4.341839 11.028291 -11.302403 -2.37263 -1.384269 -14.238577 -6.320122 -0.625439 -26.924183 -3.827601 -4.348164 -49.819283 -3.710196 -13.708522 -7.363475 -3.720939 18.141144 -14.052736 -3.242674 5e-06 -18.787264 -1e-06 -0.429712 -8.456043 2.555504 0.0 -0.0 0.0 -15.923536 -20.094482 -5.473584 30.41921 -7.190824 1.735926 1e-06 -8.162927 -1e-06 -1.861902 -22.861473 -6.167943 1e-06 -2e-06 -0.0 175.500397 -5.176811 1.085824 18.696344 -0.014762 0.101679 -81.35231 2.749491 -5.424315 -6.039386 1.538099 2.124859 -0.999999 -0.0 -0.0 -4.692836 -2.170699 -1.964896 19.279573 -0.048758 0.029602 -81.089081 -3.867746 -6.656406 -6.150548 0.765199 1.652134 -1.000003 0.0 -0.0 
